<mxfile host="app.diagrams.net" modified="2021-05-11T12:32:08.631Z" agent="5.0 (Windows NT 10.0; Win64; x64) AppleWebKit/537.36 (KHTML, like Gecko) Chrome/90.0.4430.93 Safari/537.36" etag="0JFWxWQC4ukFer64BXAj" version="14.6.11" type="github">
  <diagram id="C5RBs43oDa-KdzZeNtuy" name="Page-1">
    <mxGraphModel dx="2391" dy="2133" grid="1" gridSize="10" guides="1" tooltips="1" connect="1" arrows="1" fold="1" page="1" pageScale="1" pageWidth="827" pageHeight="1169" math="0" shadow="0">
      <root>
        <mxCell id="WIyWlLk6GJQsqaUBKTNV-0" />
        <mxCell id="WIyWlLk6GJQsqaUBKTNV-1" parent="WIyWlLk6GJQsqaUBKTNV-0" />
        <mxCell id="Wq18mz23MPEGw6SeNV3w-151" style="edgeStyle=orthogonalEdgeStyle;rounded=0;orthogonalLoop=1;jettySize=auto;html=1;endArrow=ERmany;endFill=0;entryX=0.5;entryY=0;entryDx=0;entryDy=0;" edge="1" parent="WIyWlLk6GJQsqaUBKTNV-1" source="Wq18mz23MPEGw6SeNV3w-0" target="Wq18mz23MPEGw6SeNV3w-32">
          <mxGeometry relative="1" as="geometry">
            <mxPoint x="450" y="-50" as="targetPoint" />
            <Array as="points">
              <mxPoint x="30" y="-10" />
              <mxPoint x="610" y="-10" />
            </Array>
          </mxGeometry>
        </mxCell>
        <mxCell id="Wq18mz23MPEGw6SeNV3w-0" value="Nave" style="shape=table;html=1;whiteSpace=wrap;startSize=30;container=1;collapsible=0;childLayout=tableLayout;fixedRows=1;rowLines=0;fontStyle=1;align=center;fillColor=#dae8fc;strokeColor=#6c8ebf;" vertex="1" parent="WIyWlLk6GJQsqaUBKTNV-1">
          <mxGeometry x="-60" y="30" width="180" height="220" as="geometry" />
        </mxCell>
        <mxCell id="Wq18mz23MPEGw6SeNV3w-1" value="" style="shape=partialRectangle;html=1;whiteSpace=wrap;collapsible=0;dropTarget=0;pointerEvents=0;fillColor=none;top=0;left=0;bottom=1;right=0;points=[[0,0.5],[1,0.5]];portConstraint=eastwest;" vertex="1" parent="Wq18mz23MPEGw6SeNV3w-0">
          <mxGeometry y="30" width="180" height="30" as="geometry" />
        </mxCell>
        <mxCell id="Wq18mz23MPEGw6SeNV3w-2" value="PK" style="shape=partialRectangle;html=1;whiteSpace=wrap;connectable=0;fillColor=none;top=0;left=0;bottom=0;right=0;overflow=hidden;" vertex="1" parent="Wq18mz23MPEGw6SeNV3w-1">
          <mxGeometry width="40" height="30" as="geometry" />
        </mxCell>
        <mxCell id="Wq18mz23MPEGw6SeNV3w-3" value="Id_nave" style="shape=partialRectangle;html=1;whiteSpace=wrap;connectable=0;fillColor=none;top=0;left=0;bottom=0;right=0;align=left;spacingLeft=6;overflow=hidden;" vertex="1" parent="Wq18mz23MPEGw6SeNV3w-1">
          <mxGeometry x="40" width="140" height="30" as="geometry" />
        </mxCell>
        <mxCell id="Wq18mz23MPEGw6SeNV3w-4" value="" style="shape=partialRectangle;html=1;whiteSpace=wrap;collapsible=0;dropTarget=0;pointerEvents=0;fillColor=none;top=0;left=0;bottom=0;right=0;points=[[0,0.5],[1,0.5]];portConstraint=eastwest;" vertex="1" parent="Wq18mz23MPEGw6SeNV3w-0">
          <mxGeometry y="60" width="180" height="30" as="geometry" />
        </mxCell>
        <mxCell id="Wq18mz23MPEGw6SeNV3w-5" value="" style="shape=partialRectangle;html=1;whiteSpace=wrap;connectable=0;fillColor=none;top=0;left=0;bottom=0;right=0;overflow=hidden;" vertex="1" parent="Wq18mz23MPEGw6SeNV3w-4">
          <mxGeometry width="40" height="30" as="geometry" />
        </mxCell>
        <mxCell id="Wq18mz23MPEGw6SeNV3w-6" value="nome_comandante" style="shape=partialRectangle;html=1;whiteSpace=wrap;connectable=0;fillColor=none;top=0;left=0;bottom=0;right=0;align=left;spacingLeft=6;overflow=hidden;" vertex="1" parent="Wq18mz23MPEGw6SeNV3w-4">
          <mxGeometry x="40" width="140" height="30" as="geometry" />
        </mxCell>
        <mxCell id="Wq18mz23MPEGw6SeNV3w-7" value="" style="shape=partialRectangle;html=1;whiteSpace=wrap;collapsible=0;dropTarget=0;pointerEvents=0;fillColor=none;top=0;left=0;bottom=0;right=0;points=[[0,0.5],[1,0.5]];portConstraint=eastwest;" vertex="1" parent="Wq18mz23MPEGw6SeNV3w-0">
          <mxGeometry y="90" width="180" height="30" as="geometry" />
        </mxCell>
        <mxCell id="Wq18mz23MPEGw6SeNV3w-8" value="" style="shape=partialRectangle;html=1;whiteSpace=wrap;connectable=0;fillColor=none;top=0;left=0;bottom=0;right=0;overflow=hidden;" vertex="1" parent="Wq18mz23MPEGw6SeNV3w-7">
          <mxGeometry width="40" height="30" as="geometry" />
        </mxCell>
        <mxCell id="Wq18mz23MPEGw6SeNV3w-9" value="nome_armatore" style="shape=partialRectangle;html=1;whiteSpace=wrap;connectable=0;fillColor=none;top=0;left=0;bottom=0;right=0;align=left;spacingLeft=6;overflow=hidden;" vertex="1" parent="Wq18mz23MPEGw6SeNV3w-7">
          <mxGeometry x="40" width="140" height="30" as="geometry" />
        </mxCell>
        <mxCell id="Wq18mz23MPEGw6SeNV3w-10" value="" style="shape=partialRectangle;html=1;whiteSpace=wrap;collapsible=0;dropTarget=0;pointerEvents=0;fillColor=none;top=0;left=0;bottom=0;right=0;points=[[0,0.5],[1,0.5]];portConstraint=eastwest;" vertex="1" parent="Wq18mz23MPEGw6SeNV3w-0">
          <mxGeometry y="120" width="180" height="30" as="geometry" />
        </mxCell>
        <mxCell id="Wq18mz23MPEGw6SeNV3w-11" value="" style="shape=partialRectangle;html=1;whiteSpace=wrap;connectable=0;fillColor=none;top=0;left=0;bottom=0;right=0;overflow=hidden;" vertex="1" parent="Wq18mz23MPEGw6SeNV3w-10">
          <mxGeometry width="40" height="30" as="geometry" />
        </mxCell>
        <mxCell id="Wq18mz23MPEGw6SeNV3w-12" value="porto_provenienza" style="shape=partialRectangle;html=1;whiteSpace=wrap;connectable=0;fillColor=none;top=0;left=0;bottom=0;right=0;align=left;spacingLeft=6;overflow=hidden;" vertex="1" parent="Wq18mz23MPEGw6SeNV3w-10">
          <mxGeometry x="40" width="140" height="30" as="geometry" />
        </mxCell>
        <mxCell id="Wq18mz23MPEGw6SeNV3w-13" value="" style="shape=partialRectangle;html=1;whiteSpace=wrap;collapsible=0;dropTarget=0;pointerEvents=0;fillColor=none;top=0;left=0;bottom=0;right=0;points=[[0,0.5],[1,0.5]];portConstraint=eastwest;" vertex="1" parent="Wq18mz23MPEGw6SeNV3w-0">
          <mxGeometry y="150" width="180" height="30" as="geometry" />
        </mxCell>
        <mxCell id="Wq18mz23MPEGw6SeNV3w-14" value="" style="shape=partialRectangle;html=1;whiteSpace=wrap;connectable=0;fillColor=none;top=0;left=0;bottom=0;right=0;overflow=hidden;" vertex="1" parent="Wq18mz23MPEGw6SeNV3w-13">
          <mxGeometry width="40" height="30" as="geometry" />
        </mxCell>
        <mxCell id="Wq18mz23MPEGw6SeNV3w-15" value="porto_destinazione" style="shape=partialRectangle;html=1;whiteSpace=wrap;connectable=0;fillColor=none;top=0;left=0;bottom=0;right=0;align=left;spacingLeft=6;overflow=hidden;" vertex="1" parent="Wq18mz23MPEGw6SeNV3w-13">
          <mxGeometry x="40" width="140" height="30" as="geometry" />
        </mxCell>
        <mxCell id="Wq18mz23MPEGw6SeNV3w-155" value="" style="shape=partialRectangle;html=1;whiteSpace=wrap;collapsible=0;dropTarget=0;pointerEvents=0;fillColor=none;top=0;left=0;bottom=0;right=0;points=[[0,0.5],[1,0.5]];portConstraint=eastwest;" vertex="1" parent="Wq18mz23MPEGw6SeNV3w-0">
          <mxGeometry y="180" width="180" height="30" as="geometry" />
        </mxCell>
        <mxCell id="Wq18mz23MPEGw6SeNV3w-156" value="FK" style="shape=partialRectangle;html=1;whiteSpace=wrap;connectable=0;fillColor=none;top=0;left=0;bottom=0;right=0;overflow=hidden;" vertex="1" parent="Wq18mz23MPEGw6SeNV3w-155">
          <mxGeometry width="40" height="30" as="geometry" />
        </mxCell>
        <mxCell id="Wq18mz23MPEGw6SeNV3w-157" value="Id_banchina" style="shape=partialRectangle;html=1;whiteSpace=wrap;connectable=0;fillColor=none;top=0;left=0;bottom=0;right=0;align=left;spacingLeft=6;overflow=hidden;" vertex="1" parent="Wq18mz23MPEGw6SeNV3w-155">
          <mxGeometry x="40" width="140" height="30" as="geometry" />
        </mxCell>
        <mxCell id="Wq18mz23MPEGw6SeNV3w-16" value="Banchina" style="shape=table;html=1;whiteSpace=wrap;startSize=30;container=1;collapsible=0;childLayout=tableLayout;fixedRows=1;rowLines=0;fontStyle=1;align=center;fillColor=#dae8fc;strokeColor=#6c8ebf;" vertex="1" parent="WIyWlLk6GJQsqaUBKTNV-1">
          <mxGeometry x="250" y="40" width="180" height="200" as="geometry" />
        </mxCell>
        <mxCell id="Wq18mz23MPEGw6SeNV3w-17" value="" style="shape=partialRectangle;html=1;whiteSpace=wrap;collapsible=0;dropTarget=0;pointerEvents=0;fillColor=none;top=0;left=0;bottom=1;right=0;points=[[0,0.5],[1,0.5]];portConstraint=eastwest;" vertex="1" parent="Wq18mz23MPEGw6SeNV3w-16">
          <mxGeometry y="30" width="180" height="30" as="geometry" />
        </mxCell>
        <mxCell id="Wq18mz23MPEGw6SeNV3w-18" value="PK" style="shape=partialRectangle;html=1;whiteSpace=wrap;connectable=0;fillColor=none;top=0;left=0;bottom=0;right=0;overflow=hidden;" vertex="1" parent="Wq18mz23MPEGw6SeNV3w-17">
          <mxGeometry width="40" height="30" as="geometry" />
        </mxCell>
        <mxCell id="Wq18mz23MPEGw6SeNV3w-19" value="Id_banchina" style="shape=partialRectangle;html=1;whiteSpace=wrap;connectable=0;fillColor=none;top=0;left=0;bottom=0;right=0;align=left;spacingLeft=6;overflow=hidden;" vertex="1" parent="Wq18mz23MPEGw6SeNV3w-17">
          <mxGeometry x="40" width="140" height="30" as="geometry" />
        </mxCell>
        <mxCell id="Wq18mz23MPEGw6SeNV3w-20" value="" style="shape=partialRectangle;html=1;whiteSpace=wrap;collapsible=0;dropTarget=0;pointerEvents=0;fillColor=none;top=0;left=0;bottom=0;right=0;points=[[0,0.5],[1,0.5]];portConstraint=eastwest;" vertex="1" parent="Wq18mz23MPEGw6SeNV3w-16">
          <mxGeometry y="60" width="180" height="20" as="geometry" />
        </mxCell>
        <mxCell id="Wq18mz23MPEGw6SeNV3w-21" value="" style="shape=partialRectangle;html=1;whiteSpace=wrap;connectable=0;fillColor=none;top=0;left=0;bottom=0;right=0;overflow=hidden;" vertex="1" parent="Wq18mz23MPEGw6SeNV3w-20">
          <mxGeometry width="40" height="20" as="geometry" />
        </mxCell>
        <mxCell id="Wq18mz23MPEGw6SeNV3w-22" value="misura" style="shape=partialRectangle;html=1;whiteSpace=wrap;connectable=0;fillColor=none;top=0;left=0;bottom=0;right=0;align=left;spacingLeft=6;overflow=hidden;" vertex="1" parent="Wq18mz23MPEGw6SeNV3w-20">
          <mxGeometry x="40" width="140" height="20" as="geometry" />
        </mxCell>
        <mxCell id="Wq18mz23MPEGw6SeNV3w-23" value="" style="shape=partialRectangle;html=1;whiteSpace=wrap;collapsible=0;dropTarget=0;pointerEvents=0;fillColor=none;top=0;left=0;bottom=0;right=0;points=[[0,0.5],[1,0.5]];portConstraint=eastwest;" vertex="1" parent="Wq18mz23MPEGw6SeNV3w-16">
          <mxGeometry y="80" width="180" height="30" as="geometry" />
        </mxCell>
        <mxCell id="Wq18mz23MPEGw6SeNV3w-24" value="" style="shape=partialRectangle;html=1;whiteSpace=wrap;connectable=0;fillColor=none;top=0;left=0;bottom=0;right=0;overflow=hidden;" vertex="1" parent="Wq18mz23MPEGw6SeNV3w-23">
          <mxGeometry width="40" height="30" as="geometry" />
        </mxCell>
        <mxCell id="Wq18mz23MPEGw6SeNV3w-25" value="carico_container" style="shape=partialRectangle;html=1;whiteSpace=wrap;connectable=0;fillColor=none;top=0;left=0;bottom=0;right=0;align=left;spacingLeft=6;overflow=hidden;" vertex="1" parent="Wq18mz23MPEGw6SeNV3w-23">
          <mxGeometry x="40" width="140" height="30" as="geometry" />
        </mxCell>
        <mxCell id="Wq18mz23MPEGw6SeNV3w-26" value="" style="shape=partialRectangle;html=1;whiteSpace=wrap;collapsible=0;dropTarget=0;pointerEvents=0;fillColor=none;top=0;left=0;bottom=0;right=0;points=[[0,0.5],[1,0.5]];portConstraint=eastwest;" vertex="1" parent="Wq18mz23MPEGw6SeNV3w-16">
          <mxGeometry y="110" width="180" height="30" as="geometry" />
        </mxCell>
        <mxCell id="Wq18mz23MPEGw6SeNV3w-27" value="" style="shape=partialRectangle;html=1;whiteSpace=wrap;connectable=0;fillColor=none;top=0;left=0;bottom=0;right=0;overflow=hidden;" vertex="1" parent="Wq18mz23MPEGw6SeNV3w-26">
          <mxGeometry width="40" height="30" as="geometry" />
        </mxCell>
        <mxCell id="Wq18mz23MPEGw6SeNV3w-28" value="n_banchina" style="shape=partialRectangle;html=1;whiteSpace=wrap;connectable=0;fillColor=none;top=0;left=0;bottom=0;right=0;align=left;spacingLeft=6;overflow=hidden;" vertex="1" parent="Wq18mz23MPEGw6SeNV3w-26">
          <mxGeometry x="40" width="140" height="30" as="geometry" />
        </mxCell>
        <mxCell id="Wq18mz23MPEGw6SeNV3w-29" value="" style="shape=partialRectangle;html=1;whiteSpace=wrap;collapsible=0;dropTarget=0;pointerEvents=0;fillColor=none;top=0;left=0;bottom=0;right=0;points=[[0,0.5],[1,0.5]];portConstraint=eastwest;" vertex="1" parent="Wq18mz23MPEGw6SeNV3w-16">
          <mxGeometry y="140" width="180" height="30" as="geometry" />
        </mxCell>
        <mxCell id="Wq18mz23MPEGw6SeNV3w-30" value="" style="shape=partialRectangle;html=1;whiteSpace=wrap;connectable=0;fillColor=none;top=0;left=0;bottom=0;right=0;overflow=hidden;" vertex="1" parent="Wq18mz23MPEGw6SeNV3w-29">
          <mxGeometry width="40" height="30" as="geometry" />
        </mxCell>
        <mxCell id="Wq18mz23MPEGw6SeNV3w-31" value="scarico_conteiner" style="shape=partialRectangle;html=1;whiteSpace=wrap;connectable=0;fillColor=none;top=0;left=0;bottom=0;right=0;align=left;spacingLeft=6;overflow=hidden;" vertex="1" parent="Wq18mz23MPEGw6SeNV3w-29">
          <mxGeometry x="40" width="140" height="30" as="geometry" />
        </mxCell>
        <mxCell id="Wq18mz23MPEGw6SeNV3w-212" style="edgeStyle=none;rounded=0;orthogonalLoop=1;jettySize=auto;html=1;entryX=0.444;entryY=0;entryDx=0;entryDy=0;entryPerimeter=0;endArrow=ERmany;endFill=0;" edge="1" parent="WIyWlLk6GJQsqaUBKTNV-1" source="Wq18mz23MPEGw6SeNV3w-32" target="Wq18mz23MPEGw6SeNV3w-51">
          <mxGeometry relative="1" as="geometry" />
        </mxCell>
        <mxCell id="Wq18mz23MPEGw6SeNV3w-32" value="Container" style="shape=table;html=1;whiteSpace=wrap;startSize=30;container=1;collapsible=0;childLayout=tableLayout;fixedRows=1;rowLines=0;fontStyle=1;align=center;fillColor=#dae8fc;strokeColor=#6c8ebf;" vertex="1" parent="WIyWlLk6GJQsqaUBKTNV-1">
          <mxGeometry x="520" y="40" width="180" height="300" as="geometry" />
        </mxCell>
        <mxCell id="Wq18mz23MPEGw6SeNV3w-33" value="" style="shape=partialRectangle;html=1;whiteSpace=wrap;collapsible=0;dropTarget=0;pointerEvents=0;fillColor=none;top=0;left=0;bottom=1;right=0;points=[[0,0.5],[1,0.5]];portConstraint=eastwest;" vertex="1" parent="Wq18mz23MPEGw6SeNV3w-32">
          <mxGeometry y="30" width="180" height="30" as="geometry" />
        </mxCell>
        <mxCell id="Wq18mz23MPEGw6SeNV3w-34" value="PK" style="shape=partialRectangle;html=1;whiteSpace=wrap;connectable=0;fillColor=none;top=0;left=0;bottom=0;right=0;overflow=hidden;" vertex="1" parent="Wq18mz23MPEGw6SeNV3w-33">
          <mxGeometry width="40" height="30" as="geometry" />
        </mxCell>
        <mxCell id="Wq18mz23MPEGw6SeNV3w-35" value="Id_container" style="shape=partialRectangle;html=1;whiteSpace=wrap;connectable=0;fillColor=none;top=0;left=0;bottom=0;right=0;align=left;spacingLeft=6;overflow=hidden;" vertex="1" parent="Wq18mz23MPEGw6SeNV3w-33">
          <mxGeometry x="40" width="140" height="30" as="geometry" />
        </mxCell>
        <mxCell id="Wq18mz23MPEGw6SeNV3w-36" value="" style="shape=partialRectangle;html=1;whiteSpace=wrap;collapsible=0;dropTarget=0;pointerEvents=0;fillColor=none;top=0;left=0;bottom=0;right=0;points=[[0,0.5],[1,0.5]];portConstraint=eastwest;" vertex="1" parent="Wq18mz23MPEGw6SeNV3w-32">
          <mxGeometry y="60" width="180" height="30" as="geometry" />
        </mxCell>
        <mxCell id="Wq18mz23MPEGw6SeNV3w-37" value="" style="shape=partialRectangle;html=1;whiteSpace=wrap;connectable=0;fillColor=none;top=0;left=0;bottom=0;right=0;overflow=hidden;" vertex="1" parent="Wq18mz23MPEGw6SeNV3w-36">
          <mxGeometry width="40" height="30" as="geometry" />
        </mxCell>
        <mxCell id="Wq18mz23MPEGw6SeNV3w-38" value="categoria" style="shape=partialRectangle;html=1;whiteSpace=wrap;connectable=0;fillColor=none;top=0;left=0;bottom=0;right=0;align=left;spacingLeft=6;overflow=hidden;" vertex="1" parent="Wq18mz23MPEGw6SeNV3w-36">
          <mxGeometry x="40" width="140" height="30" as="geometry" />
        </mxCell>
        <mxCell id="Wq18mz23MPEGw6SeNV3w-39" value="" style="shape=partialRectangle;html=1;whiteSpace=wrap;collapsible=0;dropTarget=0;pointerEvents=0;fillColor=none;top=0;left=0;bottom=0;right=0;points=[[0,0.5],[1,0.5]];portConstraint=eastwest;" vertex="1" parent="Wq18mz23MPEGw6SeNV3w-32">
          <mxGeometry y="90" width="180" height="30" as="geometry" />
        </mxCell>
        <mxCell id="Wq18mz23MPEGw6SeNV3w-40" value="" style="shape=partialRectangle;html=1;whiteSpace=wrap;connectable=0;fillColor=none;top=0;left=0;bottom=0;right=0;overflow=hidden;" vertex="1" parent="Wq18mz23MPEGw6SeNV3w-39">
          <mxGeometry width="40" height="30" as="geometry" />
        </mxCell>
        <mxCell id="Wq18mz23MPEGw6SeNV3w-41" value="codice_iso_6344" style="shape=partialRectangle;html=1;whiteSpace=wrap;connectable=0;fillColor=none;top=0;left=0;bottom=0;right=0;align=left;spacingLeft=6;overflow=hidden;" vertex="1" parent="Wq18mz23MPEGw6SeNV3w-39">
          <mxGeometry x="40" width="140" height="30" as="geometry" />
        </mxCell>
        <mxCell id="Wq18mz23MPEGw6SeNV3w-42" value="" style="shape=partialRectangle;html=1;whiteSpace=wrap;collapsible=0;dropTarget=0;pointerEvents=0;fillColor=none;top=0;left=0;bottom=0;right=0;points=[[0,0.5],[1,0.5]];portConstraint=eastwest;" vertex="1" parent="Wq18mz23MPEGw6SeNV3w-32">
          <mxGeometry y="120" width="180" height="30" as="geometry" />
        </mxCell>
        <mxCell id="Wq18mz23MPEGw6SeNV3w-43" value="" style="shape=partialRectangle;html=1;whiteSpace=wrap;connectable=0;fillColor=none;top=0;left=0;bottom=0;right=0;overflow=hidden;" vertex="1" parent="Wq18mz23MPEGw6SeNV3w-42">
          <mxGeometry width="40" height="30" as="geometry" />
        </mxCell>
        <mxCell id="Wq18mz23MPEGw6SeNV3w-44" value="info_generali" style="shape=partialRectangle;html=1;whiteSpace=wrap;connectable=0;fillColor=none;top=0;left=0;bottom=0;right=0;align=left;spacingLeft=6;overflow=hidden;" vertex="1" parent="Wq18mz23MPEGw6SeNV3w-42">
          <mxGeometry x="40" width="140" height="30" as="geometry" />
        </mxCell>
        <mxCell id="Wq18mz23MPEGw6SeNV3w-45" value="" style="shape=partialRectangle;html=1;whiteSpace=wrap;collapsible=0;dropTarget=0;pointerEvents=0;fillColor=none;top=0;left=0;bottom=0;right=0;points=[[0,0.5],[1,0.5]];portConstraint=eastwest;" vertex="1" parent="Wq18mz23MPEGw6SeNV3w-32">
          <mxGeometry y="150" width="180" height="30" as="geometry" />
        </mxCell>
        <mxCell id="Wq18mz23MPEGw6SeNV3w-46" value="" style="shape=partialRectangle;html=1;whiteSpace=wrap;connectable=0;fillColor=none;top=0;left=0;bottom=0;right=0;overflow=hidden;" vertex="1" parent="Wq18mz23MPEGw6SeNV3w-45">
          <mxGeometry width="40" height="30" as="geometry" />
        </mxCell>
        <mxCell id="Wq18mz23MPEGw6SeNV3w-47" value="peso_totale" style="shape=partialRectangle;html=1;whiteSpace=wrap;connectable=0;fillColor=none;top=0;left=0;bottom=0;right=0;align=left;spacingLeft=6;overflow=hidden;" vertex="1" parent="Wq18mz23MPEGw6SeNV3w-45">
          <mxGeometry x="40" width="140" height="30" as="geometry" />
        </mxCell>
        <mxCell id="Wq18mz23MPEGw6SeNV3w-48" value="" style="shape=partialRectangle;html=1;whiteSpace=wrap;collapsible=0;dropTarget=0;pointerEvents=0;fillColor=none;top=0;left=0;bottom=0;right=0;points=[[0,0.5],[1,0.5]];portConstraint=eastwest;" vertex="1" parent="Wq18mz23MPEGw6SeNV3w-32">
          <mxGeometry y="180" width="180" height="30" as="geometry" />
        </mxCell>
        <mxCell id="Wq18mz23MPEGw6SeNV3w-49" value="" style="shape=partialRectangle;html=1;whiteSpace=wrap;connectable=0;fillColor=none;top=0;left=0;bottom=0;right=0;overflow=hidden;" vertex="1" parent="Wq18mz23MPEGw6SeNV3w-48">
          <mxGeometry width="40" height="30" as="geometry" />
        </mxCell>
        <mxCell id="Wq18mz23MPEGw6SeNV3w-50" value="posizione" style="shape=partialRectangle;html=1;whiteSpace=wrap;connectable=0;fillColor=none;top=0;left=0;bottom=0;right=0;align=left;spacingLeft=6;overflow=hidden;" vertex="1" parent="Wq18mz23MPEGw6SeNV3w-48">
          <mxGeometry x="40" width="140" height="30" as="geometry" />
        </mxCell>
        <mxCell id="Wq18mz23MPEGw6SeNV3w-158" value="" style="shape=partialRectangle;html=1;whiteSpace=wrap;collapsible=0;dropTarget=0;pointerEvents=0;fillColor=none;top=0;left=0;bottom=0;right=0;points=[[0,0.5],[1,0.5]];portConstraint=eastwest;" vertex="1" parent="Wq18mz23MPEGw6SeNV3w-32">
          <mxGeometry y="210" width="180" height="30" as="geometry" />
        </mxCell>
        <mxCell id="Wq18mz23MPEGw6SeNV3w-159" value="FK" style="shape=partialRectangle;html=1;whiteSpace=wrap;connectable=0;fillColor=none;top=0;left=0;bottom=0;right=0;overflow=hidden;" vertex="1" parent="Wq18mz23MPEGw6SeNV3w-158">
          <mxGeometry width="40" height="30" as="geometry" />
        </mxCell>
        <mxCell id="Wq18mz23MPEGw6SeNV3w-160" value="Id_nave" style="shape=partialRectangle;html=1;whiteSpace=wrap;connectable=0;fillColor=none;top=0;left=0;bottom=0;right=0;align=left;spacingLeft=6;overflow=hidden;" vertex="1" parent="Wq18mz23MPEGw6SeNV3w-158">
          <mxGeometry x="40" width="140" height="30" as="geometry" />
        </mxCell>
        <mxCell id="Wq18mz23MPEGw6SeNV3w-161" value="" style="shape=partialRectangle;html=1;whiteSpace=wrap;collapsible=0;dropTarget=0;pointerEvents=0;fillColor=none;top=0;left=0;bottom=0;right=0;points=[[0,0.5],[1,0.5]];portConstraint=eastwest;" vertex="1" parent="Wq18mz23MPEGw6SeNV3w-32">
          <mxGeometry y="240" width="180" height="30" as="geometry" />
        </mxCell>
        <mxCell id="Wq18mz23MPEGw6SeNV3w-162" value="FK" style="shape=partialRectangle;html=1;whiteSpace=wrap;connectable=0;fillColor=none;top=0;left=0;bottom=0;right=0;overflow=hidden;" vertex="1" parent="Wq18mz23MPEGw6SeNV3w-161">
          <mxGeometry width="40" height="30" as="geometry" />
        </mxCell>
        <mxCell id="Wq18mz23MPEGw6SeNV3w-163" value="Id_tir" style="shape=partialRectangle;html=1;whiteSpace=wrap;connectable=0;fillColor=none;top=0;left=0;bottom=0;right=0;align=left;spacingLeft=6;overflow=hidden;" vertex="1" parent="Wq18mz23MPEGw6SeNV3w-161">
          <mxGeometry x="40" width="140" height="30" as="geometry" />
        </mxCell>
        <mxCell id="Wq18mz23MPEGw6SeNV3w-51" value="Merce" style="shape=table;html=1;whiteSpace=wrap;startSize=30;container=1;collapsible=0;childLayout=tableLayout;fixedRows=1;rowLines=0;fontStyle=1;align=center;fillColor=#dae8fc;strokeColor=#6c8ebf;" vertex="1" parent="WIyWlLk6GJQsqaUBKTNV-1">
          <mxGeometry x="530" y="390" width="180" height="180" as="geometry" />
        </mxCell>
        <mxCell id="Wq18mz23MPEGw6SeNV3w-52" value="" style="shape=partialRectangle;html=1;whiteSpace=wrap;collapsible=0;dropTarget=0;pointerEvents=0;fillColor=none;top=0;left=0;bottom=1;right=0;points=[[0,0.5],[1,0.5]];portConstraint=eastwest;" vertex="1" parent="Wq18mz23MPEGw6SeNV3w-51">
          <mxGeometry y="30" width="180" height="30" as="geometry" />
        </mxCell>
        <mxCell id="Wq18mz23MPEGw6SeNV3w-53" value="PK" style="shape=partialRectangle;html=1;whiteSpace=wrap;connectable=0;fillColor=none;top=0;left=0;bottom=0;right=0;overflow=hidden;" vertex="1" parent="Wq18mz23MPEGw6SeNV3w-52">
          <mxGeometry width="40" height="30" as="geometry" />
        </mxCell>
        <mxCell id="Wq18mz23MPEGw6SeNV3w-54" value="Id_merce" style="shape=partialRectangle;html=1;whiteSpace=wrap;connectable=0;fillColor=none;top=0;left=0;bottom=0;right=0;align=left;spacingLeft=6;overflow=hidden;" vertex="1" parent="Wq18mz23MPEGw6SeNV3w-52">
          <mxGeometry x="40" width="140" height="30" as="geometry" />
        </mxCell>
        <mxCell id="Wq18mz23MPEGw6SeNV3w-55" value="" style="shape=partialRectangle;html=1;whiteSpace=wrap;collapsible=0;dropTarget=0;pointerEvents=0;fillColor=none;top=0;left=0;bottom=0;right=0;points=[[0,0.5],[1,0.5]];portConstraint=eastwest;" vertex="1" parent="Wq18mz23MPEGw6SeNV3w-51">
          <mxGeometry y="60" width="180" height="30" as="geometry" />
        </mxCell>
        <mxCell id="Wq18mz23MPEGw6SeNV3w-56" value="" style="shape=partialRectangle;html=1;whiteSpace=wrap;connectable=0;fillColor=none;top=0;left=0;bottom=0;right=0;overflow=hidden;" vertex="1" parent="Wq18mz23MPEGw6SeNV3w-55">
          <mxGeometry width="40" height="30" as="geometry" />
        </mxCell>
        <mxCell id="Wq18mz23MPEGw6SeNV3w-57" value="tipo_merce" style="shape=partialRectangle;html=1;whiteSpace=wrap;connectable=0;fillColor=none;top=0;left=0;bottom=0;right=0;align=left;spacingLeft=6;overflow=hidden;" vertex="1" parent="Wq18mz23MPEGw6SeNV3w-55">
          <mxGeometry x="40" width="140" height="30" as="geometry" />
        </mxCell>
        <mxCell id="Wq18mz23MPEGw6SeNV3w-58" value="" style="shape=partialRectangle;html=1;whiteSpace=wrap;collapsible=0;dropTarget=0;pointerEvents=0;fillColor=none;top=0;left=0;bottom=0;right=0;points=[[0,0.5],[1,0.5]];portConstraint=eastwest;" vertex="1" parent="Wq18mz23MPEGw6SeNV3w-51">
          <mxGeometry y="90" width="180" height="30" as="geometry" />
        </mxCell>
        <mxCell id="Wq18mz23MPEGw6SeNV3w-59" value="" style="shape=partialRectangle;html=1;whiteSpace=wrap;connectable=0;fillColor=none;top=0;left=0;bottom=0;right=0;overflow=hidden;" vertex="1" parent="Wq18mz23MPEGw6SeNV3w-58">
          <mxGeometry width="40" height="30" as="geometry" />
        </mxCell>
        <mxCell id="Wq18mz23MPEGw6SeNV3w-60" value="peso_merce" style="shape=partialRectangle;html=1;whiteSpace=wrap;connectable=0;fillColor=none;top=0;left=0;bottom=0;right=0;align=left;spacingLeft=6;overflow=hidden;" vertex="1" parent="Wq18mz23MPEGw6SeNV3w-58">
          <mxGeometry x="40" width="140" height="30" as="geometry" />
        </mxCell>
        <mxCell id="Wq18mz23MPEGw6SeNV3w-61" value="" style="shape=partialRectangle;html=1;whiteSpace=wrap;collapsible=0;dropTarget=0;pointerEvents=0;fillColor=none;top=0;left=0;bottom=0;right=0;points=[[0,0.5],[1,0.5]];portConstraint=eastwest;" vertex="1" parent="Wq18mz23MPEGw6SeNV3w-51">
          <mxGeometry y="120" width="180" height="30" as="geometry" />
        </mxCell>
        <mxCell id="Wq18mz23MPEGw6SeNV3w-62" value="" style="shape=partialRectangle;html=1;whiteSpace=wrap;connectable=0;fillColor=none;top=0;left=0;bottom=0;right=0;overflow=hidden;" vertex="1" parent="Wq18mz23MPEGw6SeNV3w-61">
          <mxGeometry width="40" height="30" as="geometry" />
        </mxCell>
        <mxCell id="Wq18mz23MPEGw6SeNV3w-63" value="categoria_merce" style="shape=partialRectangle;html=1;whiteSpace=wrap;connectable=0;fillColor=none;top=0;left=0;bottom=0;right=0;align=left;spacingLeft=6;overflow=hidden;" vertex="1" parent="Wq18mz23MPEGw6SeNV3w-61">
          <mxGeometry x="40" width="140" height="30" as="geometry" />
        </mxCell>
        <mxCell id="Wq18mz23MPEGw6SeNV3w-64" value="" style="shape=partialRectangle;html=1;whiteSpace=wrap;collapsible=0;dropTarget=0;pointerEvents=0;fillColor=none;top=0;left=0;bottom=0;right=0;points=[[0,0.5],[1,0.5]];portConstraint=eastwest;" vertex="1" parent="Wq18mz23MPEGw6SeNV3w-51">
          <mxGeometry y="150" width="180" height="30" as="geometry" />
        </mxCell>
        <mxCell id="Wq18mz23MPEGw6SeNV3w-65" value="" style="shape=partialRectangle;html=1;whiteSpace=wrap;connectable=0;fillColor=none;top=0;left=0;bottom=0;right=0;overflow=hidden;" vertex="1" parent="Wq18mz23MPEGw6SeNV3w-64">
          <mxGeometry width="40" height="30" as="geometry" />
        </mxCell>
        <mxCell id="Wq18mz23MPEGw6SeNV3w-66" value="" style="shape=partialRectangle;html=1;whiteSpace=wrap;connectable=0;fillColor=none;top=0;left=0;bottom=0;right=0;align=left;spacingLeft=6;overflow=hidden;" vertex="1" parent="Wq18mz23MPEGw6SeNV3w-64">
          <mxGeometry x="40" width="140" height="30" as="geometry" />
        </mxCell>
        <mxCell id="Wq18mz23MPEGw6SeNV3w-153" style="rounded=0;orthogonalLoop=1;jettySize=auto;html=1;endArrow=ERmany;endFill=0;entryX=1;entryY=0.5;entryDx=0;entryDy=0;" edge="1" parent="WIyWlLk6GJQsqaUBKTNV-1" source="Wq18mz23MPEGw6SeNV3w-67" target="Wq18mz23MPEGw6SeNV3w-42">
          <mxGeometry relative="1" as="geometry">
            <mxPoint x="710" y="170" as="targetPoint" />
          </mxGeometry>
        </mxCell>
        <mxCell id="Wq18mz23MPEGw6SeNV3w-209" style="rounded=0;orthogonalLoop=1;jettySize=auto;html=1;entryX=0.438;entryY=-0.022;entryDx=0;entryDy=0;entryPerimeter=0;endArrow=ERmany;endFill=0;" edge="1" parent="WIyWlLk6GJQsqaUBKTNV-1" source="Wq18mz23MPEGw6SeNV3w-67" target="Wq18mz23MPEGw6SeNV3w-83">
          <mxGeometry relative="1" as="geometry" />
        </mxCell>
        <mxCell id="Wq18mz23MPEGw6SeNV3w-67" value="Tir" style="shape=table;html=1;whiteSpace=wrap;startSize=30;container=1;collapsible=0;childLayout=tableLayout;fixedRows=1;rowLines=0;fontStyle=1;align=center;fillColor=#dae8fc;strokeColor=#6c8ebf;" vertex="1" parent="WIyWlLk6GJQsqaUBKTNV-1">
          <mxGeometry x="790" y="80" width="180" height="180" as="geometry" />
        </mxCell>
        <mxCell id="Wq18mz23MPEGw6SeNV3w-68" value="" style="shape=partialRectangle;html=1;whiteSpace=wrap;collapsible=0;dropTarget=0;pointerEvents=0;fillColor=none;top=0;left=0;bottom=1;right=0;points=[[0,0.5],[1,0.5]];portConstraint=eastwest;" vertex="1" parent="Wq18mz23MPEGw6SeNV3w-67">
          <mxGeometry y="30" width="180" height="30" as="geometry" />
        </mxCell>
        <mxCell id="Wq18mz23MPEGw6SeNV3w-69" value="PK" style="shape=partialRectangle;html=1;whiteSpace=wrap;connectable=0;fillColor=none;top=0;left=0;bottom=0;right=0;overflow=hidden;" vertex="1" parent="Wq18mz23MPEGw6SeNV3w-68">
          <mxGeometry width="40" height="30" as="geometry" />
        </mxCell>
        <mxCell id="Wq18mz23MPEGw6SeNV3w-70" value="Id_tir" style="shape=partialRectangle;html=1;whiteSpace=wrap;connectable=0;fillColor=none;top=0;left=0;bottom=0;right=0;align=left;spacingLeft=6;overflow=hidden;" vertex="1" parent="Wq18mz23MPEGw6SeNV3w-68">
          <mxGeometry x="40" width="140" height="30" as="geometry" />
        </mxCell>
        <mxCell id="Wq18mz23MPEGw6SeNV3w-71" value="" style="shape=partialRectangle;html=1;whiteSpace=wrap;collapsible=0;dropTarget=0;pointerEvents=0;fillColor=none;top=0;left=0;bottom=0;right=0;points=[[0,0.5],[1,0.5]];portConstraint=eastwest;" vertex="1" parent="Wq18mz23MPEGw6SeNV3w-67">
          <mxGeometry y="60" width="180" height="30" as="geometry" />
        </mxCell>
        <mxCell id="Wq18mz23MPEGw6SeNV3w-72" value="" style="shape=partialRectangle;html=1;whiteSpace=wrap;connectable=0;fillColor=none;top=0;left=0;bottom=0;right=0;overflow=hidden;" vertex="1" parent="Wq18mz23MPEGw6SeNV3w-71">
          <mxGeometry width="40" height="30" as="geometry" />
        </mxCell>
        <mxCell id="Wq18mz23MPEGw6SeNV3w-73" value="dimenzione" style="shape=partialRectangle;html=1;whiteSpace=wrap;connectable=0;fillColor=none;top=0;left=0;bottom=0;right=0;align=left;spacingLeft=6;overflow=hidden;" vertex="1" parent="Wq18mz23MPEGw6SeNV3w-71">
          <mxGeometry x="40" width="140" height="30" as="geometry" />
        </mxCell>
        <mxCell id="Wq18mz23MPEGw6SeNV3w-74" value="" style="shape=partialRectangle;html=1;whiteSpace=wrap;collapsible=0;dropTarget=0;pointerEvents=0;fillColor=none;top=0;left=0;bottom=0;right=0;points=[[0,0.5],[1,0.5]];portConstraint=eastwest;" vertex="1" parent="Wq18mz23MPEGw6SeNV3w-67">
          <mxGeometry y="90" width="180" height="30" as="geometry" />
        </mxCell>
        <mxCell id="Wq18mz23MPEGw6SeNV3w-75" value="" style="shape=partialRectangle;html=1;whiteSpace=wrap;connectable=0;fillColor=none;top=0;left=0;bottom=0;right=0;overflow=hidden;" vertex="1" parent="Wq18mz23MPEGw6SeNV3w-74">
          <mxGeometry width="40" height="30" as="geometry" />
        </mxCell>
        <mxCell id="Wq18mz23MPEGw6SeNV3w-76" value="modello" style="shape=partialRectangle;html=1;whiteSpace=wrap;connectable=0;fillColor=none;top=0;left=0;bottom=0;right=0;align=left;spacingLeft=6;overflow=hidden;" vertex="1" parent="Wq18mz23MPEGw6SeNV3w-74">
          <mxGeometry x="40" width="140" height="30" as="geometry" />
        </mxCell>
        <mxCell id="Wq18mz23MPEGw6SeNV3w-77" value="" style="shape=partialRectangle;html=1;whiteSpace=wrap;collapsible=0;dropTarget=0;pointerEvents=0;fillColor=none;top=0;left=0;bottom=0;right=0;points=[[0,0.5],[1,0.5]];portConstraint=eastwest;" vertex="1" parent="Wq18mz23MPEGw6SeNV3w-67">
          <mxGeometry y="120" width="180" height="30" as="geometry" />
        </mxCell>
        <mxCell id="Wq18mz23MPEGw6SeNV3w-78" value="" style="shape=partialRectangle;html=1;whiteSpace=wrap;connectable=0;fillColor=none;top=0;left=0;bottom=0;right=0;overflow=hidden;" vertex="1" parent="Wq18mz23MPEGw6SeNV3w-77">
          <mxGeometry width="40" height="30" as="geometry" />
        </mxCell>
        <mxCell id="Wq18mz23MPEGw6SeNV3w-79" value="targa" style="shape=partialRectangle;html=1;whiteSpace=wrap;connectable=0;fillColor=none;top=0;left=0;bottom=0;right=0;align=left;spacingLeft=6;overflow=hidden;" vertex="1" parent="Wq18mz23MPEGw6SeNV3w-77">
          <mxGeometry x="40" width="140" height="30" as="geometry" />
        </mxCell>
        <mxCell id="Wq18mz23MPEGw6SeNV3w-80" value="" style="shape=partialRectangle;html=1;whiteSpace=wrap;collapsible=0;dropTarget=0;pointerEvents=0;fillColor=none;top=0;left=0;bottom=0;right=0;points=[[0,0.5],[1,0.5]];portConstraint=eastwest;" vertex="1" parent="Wq18mz23MPEGw6SeNV3w-67">
          <mxGeometry y="150" width="180" height="30" as="geometry" />
        </mxCell>
        <mxCell id="Wq18mz23MPEGw6SeNV3w-81" value="" style="shape=partialRectangle;html=1;whiteSpace=wrap;connectable=0;fillColor=none;top=0;left=0;bottom=0;right=0;overflow=hidden;" vertex="1" parent="Wq18mz23MPEGw6SeNV3w-80">
          <mxGeometry width="40" height="30" as="geometry" />
        </mxCell>
        <mxCell id="Wq18mz23MPEGw6SeNV3w-82" value="" style="shape=partialRectangle;html=1;whiteSpace=wrap;connectable=0;fillColor=none;top=0;left=0;bottom=0;right=0;align=left;spacingLeft=6;overflow=hidden;" vertex="1" parent="Wq18mz23MPEGw6SeNV3w-80">
          <mxGeometry x="40" width="140" height="30" as="geometry" />
        </mxCell>
        <mxCell id="Wq18mz23MPEGw6SeNV3w-99" value="Stacking_Area" style="shape=table;html=1;whiteSpace=wrap;startSize=30;container=1;collapsible=0;childLayout=tableLayout;fixedRows=1;rowLines=0;fontStyle=1;align=center;fillColor=#dae8fc;strokeColor=#6c8ebf;" vertex="1" parent="WIyWlLk6GJQsqaUBKTNV-1">
          <mxGeometry x="40" y="350" width="180" height="180" as="geometry" />
        </mxCell>
        <mxCell id="Wq18mz23MPEGw6SeNV3w-100" value="" style="shape=partialRectangle;html=1;whiteSpace=wrap;collapsible=0;dropTarget=0;pointerEvents=0;fillColor=none;top=0;left=0;bottom=1;right=0;points=[[0,0.5],[1,0.5]];portConstraint=eastwest;" vertex="1" parent="Wq18mz23MPEGw6SeNV3w-99">
          <mxGeometry y="30" width="180" height="30" as="geometry" />
        </mxCell>
        <mxCell id="Wq18mz23MPEGw6SeNV3w-101" value="PK" style="shape=partialRectangle;html=1;whiteSpace=wrap;connectable=0;fillColor=none;top=0;left=0;bottom=0;right=0;overflow=hidden;" vertex="1" parent="Wq18mz23MPEGw6SeNV3w-100">
          <mxGeometry width="40" height="30" as="geometry" />
        </mxCell>
        <mxCell id="Wq18mz23MPEGw6SeNV3w-102" value="Id_stackingArea" style="shape=partialRectangle;html=1;whiteSpace=wrap;connectable=0;fillColor=none;top=0;left=0;bottom=0;right=0;align=left;spacingLeft=6;overflow=hidden;" vertex="1" parent="Wq18mz23MPEGw6SeNV3w-100">
          <mxGeometry x="40" width="140" height="30" as="geometry" />
        </mxCell>
        <mxCell id="Wq18mz23MPEGw6SeNV3w-103" value="" style="shape=partialRectangle;html=1;whiteSpace=wrap;collapsible=0;dropTarget=0;pointerEvents=0;fillColor=none;top=0;left=0;bottom=0;right=0;points=[[0,0.5],[1,0.5]];portConstraint=eastwest;" vertex="1" parent="Wq18mz23MPEGw6SeNV3w-99">
          <mxGeometry y="60" width="180" height="30" as="geometry" />
        </mxCell>
        <mxCell id="Wq18mz23MPEGw6SeNV3w-104" value="" style="shape=partialRectangle;html=1;whiteSpace=wrap;connectable=0;fillColor=none;top=0;left=0;bottom=0;right=0;overflow=hidden;" vertex="1" parent="Wq18mz23MPEGw6SeNV3w-103">
          <mxGeometry width="40" height="30" as="geometry" />
        </mxCell>
        <mxCell id="Wq18mz23MPEGw6SeNV3w-105" value="n_posti" style="shape=partialRectangle;html=1;whiteSpace=wrap;connectable=0;fillColor=none;top=0;left=0;bottom=0;right=0;align=left;spacingLeft=6;overflow=hidden;" vertex="1" parent="Wq18mz23MPEGw6SeNV3w-103">
          <mxGeometry x="40" width="140" height="30" as="geometry" />
        </mxCell>
        <mxCell id="Wq18mz23MPEGw6SeNV3w-106" value="" style="shape=partialRectangle;html=1;whiteSpace=wrap;collapsible=0;dropTarget=0;pointerEvents=0;fillColor=none;top=0;left=0;bottom=0;right=0;points=[[0,0.5],[1,0.5]];portConstraint=eastwest;" vertex="1" parent="Wq18mz23MPEGw6SeNV3w-99">
          <mxGeometry y="90" width="180" height="30" as="geometry" />
        </mxCell>
        <mxCell id="Wq18mz23MPEGw6SeNV3w-107" value="" style="shape=partialRectangle;html=1;whiteSpace=wrap;connectable=0;fillColor=none;top=0;left=0;bottom=0;right=0;overflow=hidden;" vertex="1" parent="Wq18mz23MPEGw6SeNV3w-106">
          <mxGeometry width="40" height="30" as="geometry" />
        </mxCell>
        <mxCell id="Wq18mz23MPEGw6SeNV3w-108" value="posti_disponibili" style="shape=partialRectangle;html=1;whiteSpace=wrap;connectable=0;fillColor=none;top=0;left=0;bottom=0;right=0;align=left;spacingLeft=6;overflow=hidden;" vertex="1" parent="Wq18mz23MPEGw6SeNV3w-106">
          <mxGeometry x="40" width="140" height="30" as="geometry" />
        </mxCell>
        <mxCell id="Wq18mz23MPEGw6SeNV3w-109" value="" style="shape=partialRectangle;html=1;whiteSpace=wrap;collapsible=0;dropTarget=0;pointerEvents=0;fillColor=none;top=0;left=0;bottom=0;right=0;points=[[0,0.5],[1,0.5]];portConstraint=eastwest;" vertex="1" parent="Wq18mz23MPEGw6SeNV3w-99">
          <mxGeometry y="120" width="180" height="30" as="geometry" />
        </mxCell>
        <mxCell id="Wq18mz23MPEGw6SeNV3w-110" value="FK" style="shape=partialRectangle;html=1;whiteSpace=wrap;connectable=0;fillColor=none;top=0;left=0;bottom=0;right=0;overflow=hidden;" vertex="1" parent="Wq18mz23MPEGw6SeNV3w-109">
          <mxGeometry width="40" height="30" as="geometry" />
        </mxCell>
        <mxCell id="Wq18mz23MPEGw6SeNV3w-111" value="Id_container" style="shape=partialRectangle;html=1;whiteSpace=wrap;connectable=0;fillColor=none;top=0;left=0;bottom=0;right=0;align=left;spacingLeft=6;overflow=hidden;" vertex="1" parent="Wq18mz23MPEGw6SeNV3w-109">
          <mxGeometry x="40" width="140" height="30" as="geometry" />
        </mxCell>
        <mxCell id="Wq18mz23MPEGw6SeNV3w-112" value="" style="shape=partialRectangle;html=1;whiteSpace=wrap;collapsible=0;dropTarget=0;pointerEvents=0;fillColor=none;top=0;left=0;bottom=0;right=0;points=[[0,0.5],[1,0.5]];portConstraint=eastwest;" vertex="1" parent="Wq18mz23MPEGw6SeNV3w-99">
          <mxGeometry y="150" width="180" height="30" as="geometry" />
        </mxCell>
        <mxCell id="Wq18mz23MPEGw6SeNV3w-113" value="" style="shape=partialRectangle;html=1;whiteSpace=wrap;connectable=0;fillColor=none;top=0;left=0;bottom=0;right=0;overflow=hidden;" vertex="1" parent="Wq18mz23MPEGw6SeNV3w-112">
          <mxGeometry width="40" height="30" as="geometry" />
        </mxCell>
        <mxCell id="Wq18mz23MPEGw6SeNV3w-114" value="" style="shape=partialRectangle;html=1;whiteSpace=wrap;connectable=0;fillColor=none;top=0;left=0;bottom=0;right=0;align=left;spacingLeft=6;overflow=hidden;" vertex="1" parent="Wq18mz23MPEGw6SeNV3w-112">
          <mxGeometry x="40" width="140" height="30" as="geometry" />
        </mxCell>
        <mxCell id="Wq18mz23MPEGw6SeNV3w-115" value="Interfaccia_Carrello" style="shape=table;html=1;whiteSpace=wrap;startSize=30;container=1;collapsible=0;childLayout=tableLayout;fixedRows=1;rowLines=0;fontStyle=1;align=center;fillColor=#dae8fc;strokeColor=#6c8ebf;" vertex="1" parent="WIyWlLk6GJQsqaUBKTNV-1">
          <mxGeometry x="-240" y="350" width="180" height="180" as="geometry" />
        </mxCell>
        <mxCell id="Wq18mz23MPEGw6SeNV3w-116" value="" style="shape=partialRectangle;html=1;whiteSpace=wrap;collapsible=0;dropTarget=0;pointerEvents=0;fillColor=none;top=0;left=0;bottom=1;right=0;points=[[0,0.5],[1,0.5]];portConstraint=eastwest;" vertex="1" parent="Wq18mz23MPEGw6SeNV3w-115">
          <mxGeometry y="30" width="180" height="30" as="geometry" />
        </mxCell>
        <mxCell id="Wq18mz23MPEGw6SeNV3w-117" value="PK" style="shape=partialRectangle;html=1;whiteSpace=wrap;connectable=0;fillColor=none;top=0;left=0;bottom=0;right=0;overflow=hidden;" vertex="1" parent="Wq18mz23MPEGw6SeNV3w-116">
          <mxGeometry width="40" height="30" as="geometry" />
        </mxCell>
        <mxCell id="Wq18mz23MPEGw6SeNV3w-118" value="Id_interfacciaCarrello" style="shape=partialRectangle;html=1;whiteSpace=wrap;connectable=0;fillColor=none;top=0;left=0;bottom=0;right=0;align=left;spacingLeft=6;overflow=hidden;" vertex="1" parent="Wq18mz23MPEGw6SeNV3w-116">
          <mxGeometry x="40" width="140" height="30" as="geometry" />
        </mxCell>
        <mxCell id="Wq18mz23MPEGw6SeNV3w-119" value="" style="shape=partialRectangle;html=1;whiteSpace=wrap;collapsible=0;dropTarget=0;pointerEvents=0;fillColor=none;top=0;left=0;bottom=0;right=0;points=[[0,0.5],[1,0.5]];portConstraint=eastwest;" vertex="1" parent="Wq18mz23MPEGw6SeNV3w-115">
          <mxGeometry y="60" width="180" height="30" as="geometry" />
        </mxCell>
        <mxCell id="Wq18mz23MPEGw6SeNV3w-120" value="" style="shape=partialRectangle;html=1;whiteSpace=wrap;connectable=0;fillColor=none;top=0;left=0;bottom=0;right=0;overflow=hidden;" vertex="1" parent="Wq18mz23MPEGw6SeNV3w-119">
          <mxGeometry width="40" height="30" as="geometry" />
        </mxCell>
        <mxCell id="Wq18mz23MPEGw6SeNV3w-121" value="n_carrello" style="shape=partialRectangle;html=1;whiteSpace=wrap;connectable=0;fillColor=none;top=0;left=0;bottom=0;right=0;align=left;spacingLeft=6;overflow=hidden;" vertex="1" parent="Wq18mz23MPEGw6SeNV3w-119">
          <mxGeometry x="40" width="140" height="30" as="geometry" />
        </mxCell>
        <mxCell id="Wq18mz23MPEGw6SeNV3w-122" value="" style="shape=partialRectangle;html=1;whiteSpace=wrap;collapsible=0;dropTarget=0;pointerEvents=0;fillColor=none;top=0;left=0;bottom=0;right=0;points=[[0,0.5],[1,0.5]];portConstraint=eastwest;" vertex="1" parent="Wq18mz23MPEGw6SeNV3w-115">
          <mxGeometry y="90" width="180" height="30" as="geometry" />
        </mxCell>
        <mxCell id="Wq18mz23MPEGw6SeNV3w-123" value="" style="shape=partialRectangle;html=1;whiteSpace=wrap;connectable=0;fillColor=none;top=0;left=0;bottom=0;right=0;overflow=hidden;" vertex="1" parent="Wq18mz23MPEGw6SeNV3w-122">
          <mxGeometry width="40" height="30" as="geometry" />
        </mxCell>
        <mxCell id="Wq18mz23MPEGw6SeNV3w-124" value="n_banchina" style="shape=partialRectangle;html=1;whiteSpace=wrap;connectable=0;fillColor=none;top=0;left=0;bottom=0;right=0;align=left;spacingLeft=6;overflow=hidden;" vertex="1" parent="Wq18mz23MPEGw6SeNV3w-122">
          <mxGeometry x="40" width="140" height="30" as="geometry" />
        </mxCell>
        <mxCell id="Wq18mz23MPEGw6SeNV3w-125" value="" style="shape=partialRectangle;html=1;whiteSpace=wrap;collapsible=0;dropTarget=0;pointerEvents=0;fillColor=none;top=0;left=0;bottom=0;right=0;points=[[0,0.5],[1,0.5]];portConstraint=eastwest;" vertex="1" parent="Wq18mz23MPEGw6SeNV3w-115">
          <mxGeometry y="120" width="180" height="30" as="geometry" />
        </mxCell>
        <mxCell id="Wq18mz23MPEGw6SeNV3w-126" value="" style="shape=partialRectangle;html=1;whiteSpace=wrap;connectable=0;fillColor=none;top=0;left=0;bottom=0;right=0;overflow=hidden;" vertex="1" parent="Wq18mz23MPEGw6SeNV3w-125">
          <mxGeometry width="40" height="30" as="geometry" />
        </mxCell>
        <mxCell id="Wq18mz23MPEGw6SeNV3w-127" value="" style="shape=partialRectangle;html=1;whiteSpace=wrap;connectable=0;fillColor=none;top=0;left=0;bottom=0;right=0;align=left;spacingLeft=6;overflow=hidden;" vertex="1" parent="Wq18mz23MPEGw6SeNV3w-125">
          <mxGeometry x="40" width="140" height="30" as="geometry" />
        </mxCell>
        <mxCell id="Wq18mz23MPEGw6SeNV3w-128" value="" style="shape=partialRectangle;html=1;whiteSpace=wrap;collapsible=0;dropTarget=0;pointerEvents=0;fillColor=none;top=0;left=0;bottom=0;right=0;points=[[0,0.5],[1,0.5]];portConstraint=eastwest;" vertex="1" parent="Wq18mz23MPEGw6SeNV3w-115">
          <mxGeometry y="150" width="180" height="30" as="geometry" />
        </mxCell>
        <mxCell id="Wq18mz23MPEGw6SeNV3w-129" value="" style="shape=partialRectangle;html=1;whiteSpace=wrap;connectable=0;fillColor=none;top=0;left=0;bottom=0;right=0;overflow=hidden;" vertex="1" parent="Wq18mz23MPEGw6SeNV3w-128">
          <mxGeometry width="40" height="30" as="geometry" />
        </mxCell>
        <mxCell id="Wq18mz23MPEGw6SeNV3w-130" value="" style="shape=partialRectangle;html=1;whiteSpace=wrap;connectable=0;fillColor=none;top=0;left=0;bottom=0;right=0;align=left;spacingLeft=6;overflow=hidden;" vertex="1" parent="Wq18mz23MPEGw6SeNV3w-128">
          <mxGeometry x="40" width="140" height="30" as="geometry" />
        </mxCell>
        <mxCell id="Wq18mz23MPEGw6SeNV3w-208" style="edgeStyle=orthogonalEdgeStyle;rounded=0;orthogonalLoop=1;jettySize=auto;html=1;entryX=0;entryY=0.5;entryDx=0;entryDy=0;endArrow=ERmany;endFill=0;" edge="1" parent="WIyWlLk6GJQsqaUBKTNV-1" source="Wq18mz23MPEGw6SeNV3w-131" target="Wq18mz23MPEGw6SeNV3w-93">
          <mxGeometry relative="1" as="geometry" />
        </mxCell>
        <mxCell id="Wq18mz23MPEGw6SeNV3w-131" value="Camionista" style="shape=table;html=1;whiteSpace=wrap;startSize=30;container=1;collapsible=0;childLayout=tableLayout;fixedRows=1;rowLines=0;fontStyle=1;align=center;fillColor=#dae8fc;strokeColor=#6c8ebf;" vertex="1" parent="WIyWlLk6GJQsqaUBKTNV-1">
          <mxGeometry x="310" y="610" width="190" height="180" as="geometry" />
        </mxCell>
        <mxCell id="Wq18mz23MPEGw6SeNV3w-132" value="" style="shape=partialRectangle;html=1;whiteSpace=wrap;collapsible=0;dropTarget=0;pointerEvents=0;fillColor=none;top=0;left=0;bottom=1;right=0;points=[[0,0.5],[1,0.5]];portConstraint=eastwest;" vertex="1" parent="Wq18mz23MPEGw6SeNV3w-131">
          <mxGeometry y="30" width="190" height="30" as="geometry" />
        </mxCell>
        <mxCell id="Wq18mz23MPEGw6SeNV3w-133" value="PK" style="shape=partialRectangle;html=1;whiteSpace=wrap;connectable=0;fillColor=none;top=0;left=0;bottom=0;right=0;overflow=hidden;" vertex="1" parent="Wq18mz23MPEGw6SeNV3w-132">
          <mxGeometry width="42" height="30" as="geometry" />
        </mxCell>
        <mxCell id="Wq18mz23MPEGw6SeNV3w-134" value="Id_camionista" style="shape=partialRectangle;html=1;whiteSpace=wrap;connectable=0;fillColor=none;top=0;left=0;bottom=0;right=0;align=left;spacingLeft=6;overflow=hidden;" vertex="1" parent="Wq18mz23MPEGw6SeNV3w-132">
          <mxGeometry x="42" width="148" height="30" as="geometry" />
        </mxCell>
        <mxCell id="Wq18mz23MPEGw6SeNV3w-135" value="" style="shape=partialRectangle;html=1;whiteSpace=wrap;collapsible=0;dropTarget=0;pointerEvents=0;fillColor=none;top=0;left=0;bottom=0;right=0;points=[[0,0.5],[1,0.5]];portConstraint=eastwest;" vertex="1" parent="Wq18mz23MPEGw6SeNV3w-131">
          <mxGeometry y="60" width="190" height="30" as="geometry" />
        </mxCell>
        <mxCell id="Wq18mz23MPEGw6SeNV3w-136" value="" style="shape=partialRectangle;html=1;whiteSpace=wrap;connectable=0;fillColor=none;top=0;left=0;bottom=0;right=0;overflow=hidden;" vertex="1" parent="Wq18mz23MPEGw6SeNV3w-135">
          <mxGeometry width="42" height="30" as="geometry" />
        </mxCell>
        <mxCell id="Wq18mz23MPEGw6SeNV3w-137" value="nome" style="shape=partialRectangle;html=1;whiteSpace=wrap;connectable=0;fillColor=none;top=0;left=0;bottom=0;right=0;align=left;spacingLeft=6;overflow=hidden;" vertex="1" parent="Wq18mz23MPEGw6SeNV3w-135">
          <mxGeometry x="42" width="148" height="30" as="geometry" />
        </mxCell>
        <mxCell id="Wq18mz23MPEGw6SeNV3w-138" value="" style="shape=partialRectangle;html=1;whiteSpace=wrap;collapsible=0;dropTarget=0;pointerEvents=0;fillColor=none;top=0;left=0;bottom=0;right=0;points=[[0,0.5],[1,0.5]];portConstraint=eastwest;" vertex="1" parent="Wq18mz23MPEGw6SeNV3w-131">
          <mxGeometry y="90" width="190" height="30" as="geometry" />
        </mxCell>
        <mxCell id="Wq18mz23MPEGw6SeNV3w-139" value="" style="shape=partialRectangle;html=1;whiteSpace=wrap;connectable=0;fillColor=none;top=0;left=0;bottom=0;right=0;overflow=hidden;" vertex="1" parent="Wq18mz23MPEGw6SeNV3w-138">
          <mxGeometry width="42" height="30" as="geometry" />
        </mxCell>
        <mxCell id="Wq18mz23MPEGw6SeNV3w-140" value="cognome" style="shape=partialRectangle;html=1;whiteSpace=wrap;connectable=0;fillColor=none;top=0;left=0;bottom=0;right=0;align=left;spacingLeft=6;overflow=hidden;" vertex="1" parent="Wq18mz23MPEGw6SeNV3w-138">
          <mxGeometry x="42" width="148" height="30" as="geometry" />
        </mxCell>
        <mxCell id="Wq18mz23MPEGw6SeNV3w-141" value="" style="shape=partialRectangle;html=1;whiteSpace=wrap;collapsible=0;dropTarget=0;pointerEvents=0;fillColor=none;top=0;left=0;bottom=0;right=0;points=[[0,0.5],[1,0.5]];portConstraint=eastwest;" vertex="1" parent="Wq18mz23MPEGw6SeNV3w-131">
          <mxGeometry y="120" width="190" height="30" as="geometry" />
        </mxCell>
        <mxCell id="Wq18mz23MPEGw6SeNV3w-142" value="" style="shape=partialRectangle;html=1;whiteSpace=wrap;connectable=0;fillColor=none;top=0;left=0;bottom=0;right=0;overflow=hidden;" vertex="1" parent="Wq18mz23MPEGw6SeNV3w-141">
          <mxGeometry width="42" height="30" as="geometry" />
        </mxCell>
        <mxCell id="Wq18mz23MPEGw6SeNV3w-143" value="p_parcheggioassegnato" style="shape=partialRectangle;html=1;whiteSpace=wrap;connectable=0;fillColor=none;top=0;left=0;bottom=0;right=0;align=left;spacingLeft=6;overflow=hidden;" vertex="1" parent="Wq18mz23MPEGw6SeNV3w-141">
          <mxGeometry x="42" width="148" height="30" as="geometry" />
        </mxCell>
        <mxCell id="Wq18mz23MPEGw6SeNV3w-144" value="" style="shape=partialRectangle;html=1;whiteSpace=wrap;collapsible=0;dropTarget=0;pointerEvents=0;fillColor=none;top=0;left=0;bottom=0;right=0;points=[[0,0.5],[1,0.5]];portConstraint=eastwest;" vertex="1" parent="Wq18mz23MPEGw6SeNV3w-131">
          <mxGeometry y="150" width="190" height="30" as="geometry" />
        </mxCell>
        <mxCell id="Wq18mz23MPEGw6SeNV3w-145" value="" style="shape=partialRectangle;html=1;whiteSpace=wrap;connectable=0;fillColor=none;top=0;left=0;bottom=0;right=0;overflow=hidden;" vertex="1" parent="Wq18mz23MPEGw6SeNV3w-144">
          <mxGeometry width="42" height="30" as="geometry" />
        </mxCell>
        <mxCell id="Wq18mz23MPEGw6SeNV3w-146" value="" style="shape=partialRectangle;html=1;whiteSpace=wrap;connectable=0;fillColor=none;top=0;left=0;bottom=0;right=0;align=left;spacingLeft=6;overflow=hidden;" vertex="1" parent="Wq18mz23MPEGw6SeNV3w-144">
          <mxGeometry x="42" width="148" height="30" as="geometry" />
        </mxCell>
        <mxCell id="Wq18mz23MPEGw6SeNV3w-148" style="rounded=0;orthogonalLoop=1;jettySize=auto;html=1;endArrow=ERmany;endFill=0;" edge="1" parent="WIyWlLk6GJQsqaUBKTNV-1" source="Wq18mz23MPEGw6SeNV3w-23">
          <mxGeometry relative="1" as="geometry">
            <mxPoint x="123" y="140" as="targetPoint" />
          </mxGeometry>
        </mxCell>
        <mxCell id="Wq18mz23MPEGw6SeNV3w-149" value="ha" style="text;html=1;strokeColor=none;fillColor=none;align=center;verticalAlign=middle;whiteSpace=wrap;rounded=0;" vertex="1" parent="WIyWlLk6GJQsqaUBKTNV-1">
          <mxGeometry x="160" y="120" width="40" height="20" as="geometry" />
        </mxCell>
        <mxCell id="Wq18mz23MPEGw6SeNV3w-152" value="trasporta" style="text;html=1;strokeColor=none;fillColor=none;align=center;verticalAlign=middle;whiteSpace=wrap;rounded=0;" vertex="1" parent="WIyWlLk6GJQsqaUBKTNV-1">
          <mxGeometry x="270" y="-30" width="70" height="20" as="geometry" />
        </mxCell>
        <mxCell id="Wq18mz23MPEGw6SeNV3w-154" value="carichera&#39;" style="text;html=1;strokeColor=none;fillColor=none;align=center;verticalAlign=middle;whiteSpace=wrap;rounded=0;" vertex="1" parent="WIyWlLk6GJQsqaUBKTNV-1">
          <mxGeometry x="710" y="150" width="60" height="20" as="geometry" />
        </mxCell>
        <mxCell id="Wq18mz23MPEGw6SeNV3w-164" value="Lista_appuntamento_nave" style="shape=table;html=1;whiteSpace=wrap;startSize=30;container=1;collapsible=0;childLayout=tableLayout;fixedRows=1;rowLines=0;fontStyle=1;align=center;fillColor=#dae8fc;strokeColor=#6c8ebf;" vertex="1" parent="WIyWlLk6GJQsqaUBKTNV-1">
          <mxGeometry x="-430" y="30" width="260" height="220" as="geometry" />
        </mxCell>
        <mxCell id="Wq18mz23MPEGw6SeNV3w-165" value="" style="shape=partialRectangle;html=1;whiteSpace=wrap;collapsible=0;dropTarget=0;pointerEvents=0;fillColor=none;top=0;left=0;bottom=1;right=0;points=[[0,0.5],[1,0.5]];portConstraint=eastwest;" vertex="1" parent="Wq18mz23MPEGw6SeNV3w-164">
          <mxGeometry y="30" width="260" height="30" as="geometry" />
        </mxCell>
        <mxCell id="Wq18mz23MPEGw6SeNV3w-166" value="PK" style="shape=partialRectangle;html=1;whiteSpace=wrap;connectable=0;fillColor=none;top=0;left=0;bottom=0;right=0;overflow=hidden;" vertex="1" parent="Wq18mz23MPEGw6SeNV3w-165">
          <mxGeometry width="58" height="30" as="geometry" />
        </mxCell>
        <mxCell id="Wq18mz23MPEGw6SeNV3w-167" value="&lt;div style=&quot;text-align: center&quot;&gt;&lt;span&gt;Id_listapp_nave&lt;/span&gt;&lt;/div&gt;" style="shape=partialRectangle;html=1;whiteSpace=wrap;connectable=0;fillColor=none;top=0;left=0;bottom=0;right=0;align=left;spacingLeft=6;overflow=hidden;" vertex="1" parent="Wq18mz23MPEGw6SeNV3w-165">
          <mxGeometry x="58" width="202" height="30" as="geometry" />
        </mxCell>
        <mxCell id="Wq18mz23MPEGw6SeNV3w-168" value="" style="shape=partialRectangle;html=1;whiteSpace=wrap;collapsible=0;dropTarget=0;pointerEvents=0;fillColor=none;top=0;left=0;bottom=0;right=0;points=[[0,0.5],[1,0.5]];portConstraint=eastwest;" vertex="1" parent="Wq18mz23MPEGw6SeNV3w-164">
          <mxGeometry y="60" width="260" height="30" as="geometry" />
        </mxCell>
        <mxCell id="Wq18mz23MPEGw6SeNV3w-169" value="" style="shape=partialRectangle;html=1;whiteSpace=wrap;connectable=0;fillColor=none;top=0;left=0;bottom=0;right=0;overflow=hidden;" vertex="1" parent="Wq18mz23MPEGw6SeNV3w-168">
          <mxGeometry width="58" height="30" as="geometry" />
        </mxCell>
        <mxCell id="Wq18mz23MPEGw6SeNV3w-170" value="nome_nave_arrivo" style="shape=partialRectangle;html=1;whiteSpace=wrap;connectable=0;fillColor=none;top=0;left=0;bottom=0;right=0;align=left;spacingLeft=6;overflow=hidden;" vertex="1" parent="Wq18mz23MPEGw6SeNV3w-168">
          <mxGeometry x="58" width="202" height="30" as="geometry" />
        </mxCell>
        <mxCell id="Wq18mz23MPEGw6SeNV3w-171" value="" style="shape=partialRectangle;html=1;whiteSpace=wrap;collapsible=0;dropTarget=0;pointerEvents=0;fillColor=none;top=0;left=0;bottom=0;right=0;points=[[0,0.5],[1,0.5]];portConstraint=eastwest;" vertex="1" parent="Wq18mz23MPEGw6SeNV3w-164">
          <mxGeometry y="90" width="260" height="30" as="geometry" />
        </mxCell>
        <mxCell id="Wq18mz23MPEGw6SeNV3w-172" value="" style="shape=partialRectangle;html=1;whiteSpace=wrap;connectable=0;fillColor=none;top=0;left=0;bottom=0;right=0;overflow=hidden;" vertex="1" parent="Wq18mz23MPEGw6SeNV3w-171">
          <mxGeometry width="58" height="30" as="geometry" />
        </mxCell>
        <mxCell id="Wq18mz23MPEGw6SeNV3w-173" value="ora_arrivo_nave" style="shape=partialRectangle;html=1;whiteSpace=wrap;connectable=0;fillColor=none;top=0;left=0;bottom=0;right=0;align=left;spacingLeft=6;overflow=hidden;" vertex="1" parent="Wq18mz23MPEGw6SeNV3w-171">
          <mxGeometry x="58" width="202" height="30" as="geometry" />
        </mxCell>
        <mxCell id="Wq18mz23MPEGw6SeNV3w-174" value="" style="shape=partialRectangle;html=1;whiteSpace=wrap;collapsible=0;dropTarget=0;pointerEvents=0;fillColor=none;top=0;left=0;bottom=0;right=0;points=[[0,0.5],[1,0.5]];portConstraint=eastwest;" vertex="1" parent="Wq18mz23MPEGw6SeNV3w-164">
          <mxGeometry y="120" width="260" height="30" as="geometry" />
        </mxCell>
        <mxCell id="Wq18mz23MPEGw6SeNV3w-175" value="" style="shape=partialRectangle;html=1;whiteSpace=wrap;connectable=0;fillColor=none;top=0;left=0;bottom=0;right=0;overflow=hidden;" vertex="1" parent="Wq18mz23MPEGw6SeNV3w-174">
          <mxGeometry width="58" height="30" as="geometry" />
        </mxCell>
        <mxCell id="Wq18mz23MPEGw6SeNV3w-176" value="data_arrivo_nave" style="shape=partialRectangle;html=1;whiteSpace=wrap;connectable=0;fillColor=none;top=0;left=0;bottom=0;right=0;align=left;spacingLeft=6;overflow=hidden;" vertex="1" parent="Wq18mz23MPEGw6SeNV3w-174">
          <mxGeometry x="58" width="202" height="30" as="geometry" />
        </mxCell>
        <mxCell id="Wq18mz23MPEGw6SeNV3w-177" value="" style="shape=partialRectangle;html=1;whiteSpace=wrap;collapsible=0;dropTarget=0;pointerEvents=0;fillColor=none;top=0;left=0;bottom=0;right=0;points=[[0,0.5],[1,0.5]];portConstraint=eastwest;" vertex="1" parent="Wq18mz23MPEGw6SeNV3w-164">
          <mxGeometry y="150" width="260" height="30" as="geometry" />
        </mxCell>
        <mxCell id="Wq18mz23MPEGw6SeNV3w-178" value="FK" style="shape=partialRectangle;html=1;whiteSpace=wrap;connectable=0;fillColor=none;top=0;left=0;bottom=0;right=0;overflow=hidden;" vertex="1" parent="Wq18mz23MPEGw6SeNV3w-177">
          <mxGeometry width="58" height="30" as="geometry" />
        </mxCell>
        <mxCell id="Wq18mz23MPEGw6SeNV3w-179" value="Id_operatore" style="shape=partialRectangle;html=1;whiteSpace=wrap;connectable=0;fillColor=none;top=0;left=0;bottom=0;right=0;align=left;spacingLeft=6;overflow=hidden;" vertex="1" parent="Wq18mz23MPEGw6SeNV3w-177">
          <mxGeometry x="58" width="202" height="30" as="geometry" />
        </mxCell>
        <mxCell id="Wq18mz23MPEGw6SeNV3w-180" value="" style="shape=partialRectangle;html=1;whiteSpace=wrap;collapsible=0;dropTarget=0;pointerEvents=0;fillColor=none;top=0;left=0;bottom=0;right=0;points=[[0,0.5],[1,0.5]];portConstraint=eastwest;" vertex="1" parent="Wq18mz23MPEGw6SeNV3w-164">
          <mxGeometry y="180" width="260" height="30" as="geometry" />
        </mxCell>
        <mxCell id="Wq18mz23MPEGw6SeNV3w-181" value="FK" style="shape=partialRectangle;html=1;whiteSpace=wrap;connectable=0;fillColor=none;top=0;left=0;bottom=0;right=0;overflow=hidden;" vertex="1" parent="Wq18mz23MPEGw6SeNV3w-180">
          <mxGeometry width="58" height="30" as="geometry" />
        </mxCell>
        <mxCell id="Wq18mz23MPEGw6SeNV3w-182" value="Id_banchina" style="shape=partialRectangle;html=1;whiteSpace=wrap;connectable=0;fillColor=none;top=0;left=0;bottom=0;right=0;align=left;spacingLeft=6;overflow=hidden;" vertex="1" parent="Wq18mz23MPEGw6SeNV3w-180">
          <mxGeometry x="58" width="202" height="30" as="geometry" />
        </mxCell>
        <mxCell id="Wq18mz23MPEGw6SeNV3w-199" style="edgeStyle=none;rounded=0;orthogonalLoop=1;jettySize=auto;html=1;endArrow=ERmany;endFill=0;" edge="1" parent="WIyWlLk6GJQsqaUBKTNV-1" source="Wq18mz23MPEGw6SeNV3w-183">
          <mxGeometry relative="1" as="geometry">
            <mxPoint x="370" y="240" as="targetPoint" />
          </mxGeometry>
        </mxCell>
        <mxCell id="Wq18mz23MPEGw6SeNV3w-214" style="edgeStyle=orthogonalEdgeStyle;rounded=0;orthogonalLoop=1;jettySize=auto;html=1;entryX=0.5;entryY=1;entryDx=0;entryDy=0;endArrow=ERmany;endFill=0;" edge="1" parent="WIyWlLk6GJQsqaUBKTNV-1" source="Wq18mz23MPEGw6SeNV3w-183" target="Wq18mz23MPEGw6SeNV3w-164">
          <mxGeometry relative="1" as="geometry">
            <Array as="points">
              <mxPoint x="340" y="270" />
              <mxPoint x="-300" y="270" />
            </Array>
          </mxGeometry>
        </mxCell>
        <mxCell id="Wq18mz23MPEGw6SeNV3w-183" value="Operatore" style="shape=table;html=1;whiteSpace=wrap;startSize=30;container=1;collapsible=0;childLayout=tableLayout;fixedRows=1;rowLines=0;fontStyle=1;align=center;fillColor=#dae8fc;strokeColor=#6c8ebf;" vertex="1" parent="WIyWlLk6GJQsqaUBKTNV-1">
          <mxGeometry x="280" y="360" width="180" height="180" as="geometry" />
        </mxCell>
        <mxCell id="Wq18mz23MPEGw6SeNV3w-184" value="" style="shape=partialRectangle;html=1;whiteSpace=wrap;collapsible=0;dropTarget=0;pointerEvents=0;fillColor=none;top=0;left=0;bottom=1;right=0;points=[[0,0.5],[1,0.5]];portConstraint=eastwest;" vertex="1" parent="Wq18mz23MPEGw6SeNV3w-183">
          <mxGeometry y="30" width="180" height="30" as="geometry" />
        </mxCell>
        <mxCell id="Wq18mz23MPEGw6SeNV3w-185" value="PK" style="shape=partialRectangle;html=1;whiteSpace=wrap;connectable=0;fillColor=none;top=0;left=0;bottom=0;right=0;overflow=hidden;" vertex="1" parent="Wq18mz23MPEGw6SeNV3w-184">
          <mxGeometry width="40" height="30" as="geometry" />
        </mxCell>
        <mxCell id="Wq18mz23MPEGw6SeNV3w-186" value="Id_operatore" style="shape=partialRectangle;html=1;whiteSpace=wrap;connectable=0;fillColor=none;top=0;left=0;bottom=0;right=0;align=left;spacingLeft=6;overflow=hidden;" vertex="1" parent="Wq18mz23MPEGw6SeNV3w-184">
          <mxGeometry x="40" width="140" height="30" as="geometry" />
        </mxCell>
        <mxCell id="Wq18mz23MPEGw6SeNV3w-187" value="" style="shape=partialRectangle;html=1;whiteSpace=wrap;collapsible=0;dropTarget=0;pointerEvents=0;fillColor=none;top=0;left=0;bottom=0;right=0;points=[[0,0.5],[1,0.5]];portConstraint=eastwest;" vertex="1" parent="Wq18mz23MPEGw6SeNV3w-183">
          <mxGeometry y="60" width="180" height="30" as="geometry" />
        </mxCell>
        <mxCell id="Wq18mz23MPEGw6SeNV3w-188" value="" style="shape=partialRectangle;html=1;whiteSpace=wrap;connectable=0;fillColor=none;top=0;left=0;bottom=0;right=0;overflow=hidden;" vertex="1" parent="Wq18mz23MPEGw6SeNV3w-187">
          <mxGeometry width="40" height="30" as="geometry" />
        </mxCell>
        <mxCell id="Wq18mz23MPEGw6SeNV3w-189" value="nome_operatore" style="shape=partialRectangle;html=1;whiteSpace=wrap;connectable=0;fillColor=none;top=0;left=0;bottom=0;right=0;align=left;spacingLeft=6;overflow=hidden;" vertex="1" parent="Wq18mz23MPEGw6SeNV3w-187">
          <mxGeometry x="40" width="140" height="30" as="geometry" />
        </mxCell>
        <mxCell id="Wq18mz23MPEGw6SeNV3w-190" value="" style="shape=partialRectangle;html=1;whiteSpace=wrap;collapsible=0;dropTarget=0;pointerEvents=0;fillColor=none;top=0;left=0;bottom=0;right=0;points=[[0,0.5],[1,0.5]];portConstraint=eastwest;" vertex="1" parent="Wq18mz23MPEGw6SeNV3w-183">
          <mxGeometry y="90" width="180" height="30" as="geometry" />
        </mxCell>
        <mxCell id="Wq18mz23MPEGw6SeNV3w-191" value="" style="shape=partialRectangle;html=1;whiteSpace=wrap;connectable=0;fillColor=none;top=0;left=0;bottom=0;right=0;overflow=hidden;" vertex="1" parent="Wq18mz23MPEGw6SeNV3w-190">
          <mxGeometry width="40" height="30" as="geometry" />
        </mxCell>
        <mxCell id="Wq18mz23MPEGw6SeNV3w-192" value="cognome_operatore" style="shape=partialRectangle;html=1;whiteSpace=wrap;connectable=0;fillColor=none;top=0;left=0;bottom=0;right=0;align=left;spacingLeft=6;overflow=hidden;" vertex="1" parent="Wq18mz23MPEGw6SeNV3w-190">
          <mxGeometry x="40" width="140" height="30" as="geometry" />
        </mxCell>
        <mxCell id="Wq18mz23MPEGw6SeNV3w-193" value="" style="shape=partialRectangle;html=1;whiteSpace=wrap;collapsible=0;dropTarget=0;pointerEvents=0;fillColor=none;top=0;left=0;bottom=0;right=0;points=[[0,0.5],[1,0.5]];portConstraint=eastwest;" vertex="1" parent="Wq18mz23MPEGw6SeNV3w-183">
          <mxGeometry y="120" width="180" height="30" as="geometry" />
        </mxCell>
        <mxCell id="Wq18mz23MPEGw6SeNV3w-194" value="" style="shape=partialRectangle;html=1;whiteSpace=wrap;connectable=0;fillColor=none;top=0;left=0;bottom=0;right=0;overflow=hidden;" vertex="1" parent="Wq18mz23MPEGw6SeNV3w-193">
          <mxGeometry width="40" height="30" as="geometry" />
        </mxCell>
        <mxCell id="Wq18mz23MPEGw6SeNV3w-195" value="matricola" style="shape=partialRectangle;html=1;whiteSpace=wrap;connectable=0;fillColor=none;top=0;left=0;bottom=0;right=0;align=left;spacingLeft=6;overflow=hidden;" vertex="1" parent="Wq18mz23MPEGw6SeNV3w-193">
          <mxGeometry x="40" width="140" height="30" as="geometry" />
        </mxCell>
        <mxCell id="Wq18mz23MPEGw6SeNV3w-196" value="" style="shape=partialRectangle;html=1;whiteSpace=wrap;collapsible=0;dropTarget=0;pointerEvents=0;fillColor=none;top=0;left=0;bottom=0;right=0;points=[[0,0.5],[1,0.5]];portConstraint=eastwest;" vertex="1" parent="Wq18mz23MPEGw6SeNV3w-183">
          <mxGeometry y="150" width="180" height="30" as="geometry" />
        </mxCell>
        <mxCell id="Wq18mz23MPEGw6SeNV3w-197" value="" style="shape=partialRectangle;html=1;whiteSpace=wrap;connectable=0;fillColor=none;top=0;left=0;bottom=0;right=0;overflow=hidden;" vertex="1" parent="Wq18mz23MPEGw6SeNV3w-196">
          <mxGeometry width="40" height="30" as="geometry" />
        </mxCell>
        <mxCell id="Wq18mz23MPEGw6SeNV3w-198" value="" style="shape=partialRectangle;html=1;whiteSpace=wrap;connectable=0;fillColor=none;top=0;left=0;bottom=0;right=0;align=left;spacingLeft=6;overflow=hidden;" vertex="1" parent="Wq18mz23MPEGw6SeNV3w-196">
          <mxGeometry x="40" width="140" height="30" as="geometry" />
        </mxCell>
        <mxCell id="Wq18mz23MPEGw6SeNV3w-201" value="dirige" style="text;html=1;strokeColor=none;fillColor=none;align=center;verticalAlign=middle;whiteSpace=wrap;rounded=0;" vertex="1" parent="WIyWlLk6GJQsqaUBKTNV-1">
          <mxGeometry x="374" y="290" width="40" height="20" as="geometry" />
        </mxCell>
        <mxCell id="Wq18mz23MPEGw6SeNV3w-83" value="Richiesta_tir_lista" style="shape=table;html=1;whiteSpace=wrap;startSize=30;container=1;collapsible=0;childLayout=tableLayout;fixedRows=1;rowLines=0;fontStyle=1;align=center;fillColor=#dae8fc;strokeColor=#6c8ebf;" vertex="1" parent="WIyWlLk6GJQsqaUBKTNV-1">
          <mxGeometry x="790" y="460" width="210" height="180" as="geometry" />
        </mxCell>
        <mxCell id="Wq18mz23MPEGw6SeNV3w-84" value="" style="shape=partialRectangle;html=1;whiteSpace=wrap;collapsible=0;dropTarget=0;pointerEvents=0;fillColor=none;top=0;left=0;bottom=1;right=0;points=[[0,0.5],[1,0.5]];portConstraint=eastwest;" vertex="1" parent="Wq18mz23MPEGw6SeNV3w-83">
          <mxGeometry y="30" width="210" height="30" as="geometry" />
        </mxCell>
        <mxCell id="Wq18mz23MPEGw6SeNV3w-85" value="PK" style="shape=partialRectangle;html=1;whiteSpace=wrap;connectable=0;fillColor=none;top=0;left=0;bottom=0;right=0;overflow=hidden;" vertex="1" parent="Wq18mz23MPEGw6SeNV3w-84">
          <mxGeometry width="47" height="30" as="geometry" />
        </mxCell>
        <mxCell id="Wq18mz23MPEGw6SeNV3w-86" value="Id_richiesta_Container" style="shape=partialRectangle;html=1;whiteSpace=wrap;connectable=0;fillColor=none;top=0;left=0;bottom=0;right=0;align=left;spacingLeft=6;overflow=hidden;" vertex="1" parent="Wq18mz23MPEGw6SeNV3w-84">
          <mxGeometry x="47" width="163" height="30" as="geometry" />
        </mxCell>
        <mxCell id="Wq18mz23MPEGw6SeNV3w-87" value="" style="shape=partialRectangle;html=1;whiteSpace=wrap;collapsible=0;dropTarget=0;pointerEvents=0;fillColor=none;top=0;left=0;bottom=0;right=0;points=[[0,0.5],[1,0.5]];portConstraint=eastwest;" vertex="1" parent="Wq18mz23MPEGw6SeNV3w-83">
          <mxGeometry y="60" width="210" height="30" as="geometry" />
        </mxCell>
        <mxCell id="Wq18mz23MPEGw6SeNV3w-88" value="" style="shape=partialRectangle;html=1;whiteSpace=wrap;connectable=0;fillColor=none;top=0;left=0;bottom=0;right=0;overflow=hidden;" vertex="1" parent="Wq18mz23MPEGw6SeNV3w-87">
          <mxGeometry width="47" height="30" as="geometry" />
        </mxCell>
        <mxCell id="Wq18mz23MPEGw6SeNV3w-89" value="data_ritiroContainer" style="shape=partialRectangle;html=1;whiteSpace=wrap;connectable=0;fillColor=none;top=0;left=0;bottom=0;right=0;align=left;spacingLeft=6;overflow=hidden;" vertex="1" parent="Wq18mz23MPEGw6SeNV3w-87">
          <mxGeometry x="47" width="163" height="30" as="geometry" />
        </mxCell>
        <mxCell id="Wq18mz23MPEGw6SeNV3w-90" value="" style="shape=partialRectangle;html=1;whiteSpace=wrap;collapsible=0;dropTarget=0;pointerEvents=0;fillColor=none;top=0;left=0;bottom=0;right=0;points=[[0,0.5],[1,0.5]];portConstraint=eastwest;" vertex="1" parent="Wq18mz23MPEGw6SeNV3w-83">
          <mxGeometry y="90" width="210" height="30" as="geometry" />
        </mxCell>
        <mxCell id="Wq18mz23MPEGw6SeNV3w-91" value="" style="shape=partialRectangle;html=1;whiteSpace=wrap;connectable=0;fillColor=none;top=0;left=0;bottom=0;right=0;overflow=hidden;" vertex="1" parent="Wq18mz23MPEGw6SeNV3w-90">
          <mxGeometry width="47" height="30" as="geometry" />
        </mxCell>
        <mxCell id="Wq18mz23MPEGw6SeNV3w-92" value="ora_ritiroContainer" style="shape=partialRectangle;html=1;whiteSpace=wrap;connectable=0;fillColor=none;top=0;left=0;bottom=0;right=0;align=left;spacingLeft=6;overflow=hidden;" vertex="1" parent="Wq18mz23MPEGw6SeNV3w-90">
          <mxGeometry x="47" width="163" height="30" as="geometry" />
        </mxCell>
        <mxCell id="Wq18mz23MPEGw6SeNV3w-93" value="" style="shape=partialRectangle;html=1;whiteSpace=wrap;collapsible=0;dropTarget=0;pointerEvents=0;fillColor=none;top=0;left=0;bottom=0;right=0;points=[[0,0.5],[1,0.5]];portConstraint=eastwest;" vertex="1" parent="Wq18mz23MPEGw6SeNV3w-83">
          <mxGeometry y="120" width="210" height="30" as="geometry" />
        </mxCell>
        <mxCell id="Wq18mz23MPEGw6SeNV3w-94" value="" style="shape=partialRectangle;html=1;whiteSpace=wrap;connectable=0;fillColor=none;top=0;left=0;bottom=0;right=0;overflow=hidden;" vertex="1" parent="Wq18mz23MPEGw6SeNV3w-93">
          <mxGeometry width="47" height="30" as="geometry" />
        </mxCell>
        <mxCell id="Wq18mz23MPEGw6SeNV3w-95" value="luogo" style="shape=partialRectangle;html=1;whiteSpace=wrap;connectable=0;fillColor=none;top=0;left=0;bottom=0;right=0;align=left;spacingLeft=6;overflow=hidden;" vertex="1" parent="Wq18mz23MPEGw6SeNV3w-93">
          <mxGeometry x="47" width="163" height="30" as="geometry" />
        </mxCell>
        <mxCell id="Wq18mz23MPEGw6SeNV3w-96" value="" style="shape=partialRectangle;html=1;whiteSpace=wrap;collapsible=0;dropTarget=0;pointerEvents=0;fillColor=none;top=0;left=0;bottom=0;right=0;points=[[0,0.5],[1,0.5]];portConstraint=eastwest;" vertex="1" parent="Wq18mz23MPEGw6SeNV3w-83">
          <mxGeometry y="150" width="210" height="30" as="geometry" />
        </mxCell>
        <mxCell id="Wq18mz23MPEGw6SeNV3w-97" value="FK" style="shape=partialRectangle;html=1;whiteSpace=wrap;connectable=0;fillColor=none;top=0;left=0;bottom=0;right=0;overflow=hidden;" vertex="1" parent="Wq18mz23MPEGw6SeNV3w-96">
          <mxGeometry width="47" height="30" as="geometry" />
        </mxCell>
        <mxCell id="Wq18mz23MPEGw6SeNV3w-98" value="Id_camionista" style="shape=partialRectangle;html=1;whiteSpace=wrap;connectable=0;fillColor=none;top=0;left=0;bottom=0;right=0;align=left;spacingLeft=6;overflow=hidden;" vertex="1" parent="Wq18mz23MPEGw6SeNV3w-96">
          <mxGeometry x="47" width="163" height="30" as="geometry" />
        </mxCell>
        <mxCell id="Wq18mz23MPEGw6SeNV3w-210" value="prenota" style="text;html=1;strokeColor=none;fillColor=none;align=center;verticalAlign=middle;whiteSpace=wrap;rounded=0;" vertex="1" parent="WIyWlLk6GJQsqaUBKTNV-1">
          <mxGeometry x="650" y="620" width="40" height="20" as="geometry" />
        </mxCell>
        <mxCell id="Wq18mz23MPEGw6SeNV3w-211" value="puo fare" style="text;html=1;strokeColor=none;fillColor=none;align=center;verticalAlign=middle;whiteSpace=wrap;rounded=0;" vertex="1" parent="WIyWlLk6GJQsqaUBKTNV-1">
          <mxGeometry x="890" y="350" width="60" height="20" as="geometry" />
        </mxCell>
        <mxCell id="Wq18mz23MPEGw6SeNV3w-213" value="possiede" style="text;html=1;strokeColor=none;fillColor=none;align=center;verticalAlign=middle;whiteSpace=wrap;rounded=0;" vertex="1" parent="WIyWlLk6GJQsqaUBKTNV-1">
          <mxGeometry x="620" y="360" width="50" height="20" as="geometry" />
        </mxCell>
        <mxCell id="Wq18mz23MPEGw6SeNV3w-215" value="ha" style="text;html=1;strokeColor=none;fillColor=none;align=center;verticalAlign=middle;whiteSpace=wrap;rounded=0;" vertex="1" parent="WIyWlLk6GJQsqaUBKTNV-1">
          <mxGeometry x="110" y="280" width="40" height="20" as="geometry" />
        </mxCell>
        <mxCell id="Wq18mz23MPEGw6SeNV3w-216" style="edgeStyle=orthogonalEdgeStyle;rounded=0;orthogonalLoop=1;jettySize=auto;html=1;entryX=0;entryY=0.5;entryDx=0;entryDy=0;endArrow=ERmany;endFill=0;" edge="1" parent="WIyWlLk6GJQsqaUBKTNV-1" source="Wq18mz23MPEGw6SeNV3w-122" target="Wq18mz23MPEGw6SeNV3w-106">
          <mxGeometry relative="1" as="geometry" />
        </mxCell>
        <mxCell id="Wq18mz23MPEGw6SeNV3w-217" value="FK" style="text;html=1;align=center;verticalAlign=middle;resizable=0;points=[];autosize=1;strokeColor=none;" vertex="1" parent="WIyWlLk6GJQsqaUBKTNV-1">
          <mxGeometry x="255" y="210" width="30" height="20" as="geometry" />
        </mxCell>
        <mxCell id="Wq18mz23MPEGw6SeNV3w-218" value="Id_operatore" style="text;html=1;align=center;verticalAlign=middle;resizable=0;points=[];autosize=1;strokeColor=none;" vertex="1" parent="WIyWlLk6GJQsqaUBKTNV-1">
          <mxGeometry x="290" y="210" width="80" height="20" as="geometry" />
        </mxCell>
        <mxCell id="Wq18mz23MPEGw6SeNV3w-219" style="edgeStyle=orthogonalEdgeStyle;rounded=0;orthogonalLoop=1;jettySize=auto;html=1;entryX=0.75;entryY=0;entryDx=0;entryDy=0;endArrow=ERmany;endFill=0;" edge="1" parent="WIyWlLk6GJQsqaUBKTNV-1" source="Wq18mz23MPEGw6SeNV3w-161" target="Wq18mz23MPEGw6SeNV3w-99">
          <mxGeometry relative="1" as="geometry">
            <Array as="points">
              <mxPoint x="175" y="280" />
            </Array>
          </mxGeometry>
        </mxCell>
        <mxCell id="Wq18mz23MPEGw6SeNV3w-220" value="andra" style="text;html=1;strokeColor=none;fillColor=none;align=center;verticalAlign=middle;whiteSpace=wrap;rounded=0;" vertex="1" parent="WIyWlLk6GJQsqaUBKTNV-1">
          <mxGeometry x="230" y="290" width="40" height="20" as="geometry" />
        </mxCell>
      </root>
    </mxGraphModel>
  </diagram>
</mxfile>
